<?xml version="1.0" standalone="no"?>
<!DOCTYPE svg PUBLIC "-//W3C//DTD SVG 20010904//EN"
 "http://www.w3.org/TR/2001/REC-SVG-20010904/DTD/svg10.dtd">
<svg version="1.0" xmlns="http://www.w3.org/2000/svg"
 width="700.000000pt" height="700.000000pt" viewBox="0 0 700.000000 700.000000"
 preserveAspectRatio="xMidYMid meet">
<metadata>
Created by potrace 1.14, written by Peter Selinger 2001-2017
</metadata>
<g transform="translate(0.000000,700.000000) scale(0.100000,-0.100000)"
fill="#000000" stroke="none">
<path d="M805 6559 c-122 -15 -150 -21 -218 -46 -175 -62 -324 -176 -434 -331
-13 -17 -23 -34 -23 -38 0 -3 -8 -18 -18 -32 -24 -34 -79 -167 -85 -207 -3
-16 -10 -52 -16 -80 -7 -34 -10 -795 -8 -2355 2 -2163 3 -2309 20 -2365 47
-163 139 -324 232 -408 11 -10 36 -33 55 -51 114 -105 302 -186 474 -202 91
-9 5361 -9 5441 -1 357 40 643 292 752 662 17 57 18 190 20 2370 1 2183 0
2314 -16 2390 -25 109 -44 161 -93 247 -133 237 -363 397 -628 439 -56 9 -743
12 -2740 13 -1466 1 -2687 -2 -2715 -5z m5457 -458 c144 -46 254 -168 289
-319 8 -34 11 -681 11 -2287 1 -2099 0 -2244 -17 -2299 -42 -144 -143 -250
-282 -297 l-68 -23 -2675 -1 c-2005 -1 -2689 2 -2732 11 -163 33 -292 157
-339 325 -9 34 -12 568 -12 2294 l0 2250 22 63 c12 35 33 82 47 104 58 92 167
168 274 192 34 8 833 11 2732 10 l2683 -1 67 -22z"/>
<path d="M1457 5236 c-66 -24 -110 -71 -131 -138 -18 -57 -15 -111 8 -158 9
-20 179 -198 386 -405 204 -204 370 -373 370 -378 0 -4 -168 -176 -374 -382
-354 -354 -376 -377 -392 -429 -15 -48 -16 -62 -5 -112 32 -140 201 -215 319
-142 58 36 940 923 964 970 28 54 28 132 -1 190 -31 64 -921 950 -981 977 -52
24 -109 26 -163 7z"/>
<path d="M2855 3279 c-86 -6 -125 -21 -166 -66 -104 -112 -74 -276 64 -350 29
-16 89 -17 727 -18 746 -2 746 -2 813 50 130 98 90 323 -67 375 -38 12 -1212
20 -1371 9z"/>
</g>
</svg>
